<svg xmlns="http://www.w3.org/2000/svg" width="900" height="600"><path fill="#fa7268" d="m0 447 21.5-8.5C43 430 86 413 128.8 397.3c42.9-15.6 85.5-30 128.4-26.6 42.8 3.3 85.8 24.3 128.6 40 42.9 15.6 85.5 26 128.4 28 42.8 2 85.8-4.4 128.6-7.4 42.9-3 85.5-2.6 128.4-14.8 42.8-12.2 85.8-36.8 107.3-49.2L900 355v246H0Z"/><path fill="#ef5f67" d="m0 435 21.5-3.5C43 428 86 421 128.8 421c42.9 0 85.5 7 128.4 15.3 42.8 8.4 85.8 18 128.6 21.9 42.9 3.8 85.5 1.8 128.4-9.7C557 437 600 416 642.8 412.3c42.9-3.6 85.5 10 128.4 11.9C814 426 857 416 878.5 411l21.5-5v195H0Z"/><path fill="#e34c67" d="m0 455 21.5 3.3c21.5 3.4 64.5 10 107.3 7.9 42.9-2.2 85.5-13.2 128.4-9.2 42.8 4 85.8 23 128.6 24.8 42.9 1.9 85.5-13.5 128.4-20.1 42.8-6.7 85.8-4.7 128.6-1.4 42.9 3.4 85.5 8 128.4 6.2 42.8-1.8 85.8-10.2 107.3-14.3L900 448v153H0Z"/><path fill="#d53867" d="m0 529 21.5.5c21.5.5 64.5 1.5 107.3.8 42.9-.6 85.5-3 128.4-8.1C300 517 343 509 385.8 511c42.9 2 85.5 14 128.4 17.7 42.8 3.6 85.8-1 128.6-4.4 42.9-3.3 85.5-5.3 128.4-6.5 42.8-1.1 85.8-1.5 107.3-1.6l21.5-.2v85H0Z"/><path fill="#c62368" d="m0 543 21.5 4.7c21.5 4.6 64.5 14 107.3 14.3 42.9.3 85.5-8.3 128.4-12 42.8-3.7 85.8-2.3 128.6-1.8 42.9.5 85.5.1 128.4 1.8 42.8 1.7 85.8 5.3 128.6 6.3 42.9 1 85.5-.6 128.4-1 42.8-.3 85.8.7 107.3 1.2l21.5.5v44H0Z"/></svg>